# xmcd
#
# Track frame offsets:
#	150
#	12490
#	24511
#	36151
#	48614
#	57287
#	66349
#	78731
#	89522
#	99180
#	109705
#	120374
#	132103
#	144463
#
# Disc length: 2086 seconds
#
# Revision: 1
# Processed by: cddbd v1.5.2PL0 Copyright (c) Steve Scherf et al.
# Submitted via: audiograbber 1.83.01
#
DISCID=bb08240e
DTITLE=Marty Robbins - The Story of My Life - CD 1
DYEAR=2008
DGENRE=Country
TTITLE0=Tomorrow You큞l Be Gone
TTITLE1=I큞l Go On Alone
TTITLE2=Pretty Words
TTITLE3=I Couldn큧 Keep From Crying
TTITLE4=Lorelei
TTITLE5=It큦 A Long Long Ride
TTITLE6=My Isle Of Golden Dreams
TTITLE7=Aloha Oe (Farewell To Thee)
TTITLE8=Call Me Up (And I큞l Come Calling On You)
TTITLE9=It큦 A Pity What Money Can Do
TTITLE10=Time Goes By
TTITLE11=That큦 All Right
TTITLE12=Gossip
TTITLE13=Pretty Mama
EXTD=
EXTT0=
EXTT1=
EXTT2=
EXTT3=
EXTT4=
EXTT5=
EXTT6=
EXTT7=
EXTT8=
EXTT9=
EXTT10=
EXTT11=
EXTT12=
EXTT13=
PLAYORDER=
